<svg id="e0ef4223-6d00-43ae-bf0a-9f7b59a081b4" data-name="Livello 1" xmlns="http://www.w3.org/2000/svg" viewBox="0 0 354.95 151.03"><polygon points="119.69 84.27 114.16 58.59 142.18 37.98 166.25 43.93 179.01 42.51 182.78 49.47 169.21 84 157.16 56.82 142.61 57.72 119.69 84.27" style="fill:#fff"/><path d="M66.81,51.76h10.1q9.3,0,9.31,6.52a8.27,8.27,0,0,1-3.26,7q-3.27,2.49-9.12,2.49H60.36L27.48,148.81q-4.11,10-11.43,10a7.84,7.84,0,0,1-5.42-2A6.37,6.37,0,0,1,8.43,152q0-2.13,1.91-7L41.76,67.73h-5q-9.3,0-9.3-6.37a8.43,8.43,0,0,1,3.25-7.07c2.18-1.68,5.22-2.53,9.12-2.53H48.2l9.31-22.92q4.68-11.43,11.24-16.22t17.54-4.8h8.35q9.38,0,9.37,6.44a8.56,8.56,0,0,1-3.29,7.18Q97.42,24,91.56,24H89.37c-4.11,0-7.34.84-9.71,2.49s-4.36,4.47-6,8.43Z" transform="translate(-8.43 -7.82)" style="fill:#fd7979"/><path d="M96.4,91.83h7.69q9.3,0,9.3,6.52a8.26,8.26,0,0,1-3.26,7q-3.25,2.49-9.12,2.49H87.83c-3.62,0-6.47-.85-8.57-2.56a8.41,8.41,0,0,1-3.15-6.88c0-1.52.71-4,2.12-7.55L107.82,18l.81-2q3.36-8.2,10.77-8.2a7.3,7.3,0,0,1,5.23,2,6.53,6.53,0,0,1,2.16,4.91,13.66,13.66,0,0,1-1.1,5l-.8,2Z" transform="translate(-8.43 -7.82)" style="fill:#fd7979"/><path d="M285.82,91.83h8.71q9.23,0,9.23,6.52a8.26,8.26,0,0,1-3.26,7q-3.25,2.49-9.05,2.49H276.59a11.64,11.64,0,0,1-7.84-2.56,8.44,8.44,0,0,1-3-6.74,22.55,22.55,0,0,1,2-7.76L274.61,74a7.35,7.35,0,0,0,.58-2.71q0-4.77-4.83-4.77c-2.49,0-5,1.13-7.4,3.37a23.88,23.88,0,0,0-5.86,8.94L248.9,99q-4,9.82-11.72,9.82a7.23,7.23,0,0,1-5.12-2,6.19,6.19,0,0,1-2.13-4.69,14.32,14.32,0,0,1,1.1-5l.81-2,8.27-20.44a12.29,12.29,0,0,0,1.1-4.25,3.6,3.6,0,0,0-1.46-2.82,5.3,5.3,0,0,0-3.45-1.21q-7.91,0-12.52,11.43l-8.57,21q-4,9.88-11.65,9.89a7.47,7.47,0,0,1-5.16-1.94,6.12,6.12,0,0,1-2.16-4.73,13.87,13.87,0,0,1,1.1-5l.8-2,14.58-35.89q3.08-7.55,9.23-7.55,6.38,0,7.91,6A37.6,37.6,0,0,1,238,52.13a18.73,18.73,0,0,1,7.66-1.39,15.91,15.91,0,0,1,14.72,8.57q8.19-8.58,18.45-8.57a17.39,17.39,0,0,1,11.76,4.06,12.7,12.7,0,0,1,4.72,10,20.22,20.22,0,0,1-1.61,7.69Z" transform="translate(-8.43 -7.82)" style="fill:#fd7979"/><path d="M324.12,86.33q0,5.51,8.28,5.5h21.75q9.23,0,9.23,6.52a8.26,8.26,0,0,1-3.26,7q-3.25,2.49-9.12,2.49H330.27q-11.56,0-17.61-5.71t-6-16.7A34.57,34.57,0,0,1,316.17,61q9.57-10.25,22.75-10.25,9.58,0,15.41,5A16.64,16.64,0,0,1,360.16,69q0,9.88-8.06,14.64-4.47,2.72-13.33,2.71ZM327.64,73h8.05c5.23,0,7.77-1.14,7.62-3.44q-.22-3.89-5.05-3.88Q331.51,65.68,327.64,73Z" transform="translate(-8.43 -7.82)" style="fill:#fd7979"/><path d="M185.7,91.83h-8.06C179.72,72,165.88,66.77,156.2,53.21c-1.39-2-3.18-2-4.58,0C142,66.79,126,72.29,128.13,92.09h0a20.18,20.18,0,0,0,4.51,10,16.27,16.27,0,0,0,13,5.75H154q5.12,0,10.62-4.9,2.26,4.9,8.57,4.9h9.37c3.86,0,6.88-.84,9.08-2.52a8.33,8.33,0,0,0,3.3-7Q194.93,91.84,185.7,91.83ZM166,74.61l-5.13,12.68q-2,4.9-8,4.9h-1.83q-6.09,0-6.08-7.54Q145,78,150,71.76t10.4-6.23A7.46,7.46,0,0,1,165.08,67,4.23,4.23,0,0,1,167,70.44,11.43,11.43,0,0,1,166,74.61Z" transform="translate(-8.43 -7.82)" style="fill:#fd7979"/><path d="M137.4,61.83q9.71-11.08,21.93-11.09,9.38,0,13.7,6.52,3.66-5.5,9.59-5.5A7.56,7.56,0,0,1,188,53.81a6.71,6.71,0,0,1,2.16,5.06,13.29,13.29,0,0,1-1.17,4.9l-.81,2L177.65,91.82c16.2-9.67,18.89-36.45,8.3-56.58-9.72,12.09-11.14,14.27-17,6.8-14.85-19-7.79-37.26-22.68-18.21-5.92,7.57-13.6,38.8-23.21,26.91-10.57,20.09-11,31.74,5,41.35a29.44,29.44,0,0,1-.44-5.1A37.2,37.2,0,0,1,137.4,61.83Z" transform="translate(-8.43 -7.82)" style="fill:#f5be03"/><path d="M189.88,61.07a9.66,9.66,0,0,0,.29-2.21A6.71,6.71,0,0,0,188,53.8a7.56,7.56,0,0,0-5.39-2q-5.93,0-9.59,5.5-4.32-6.53-13.7-6.52-12.22,0-21.93,11.09A37.2,37.2,0,0,0,127.69,87a29.28,29.28,0,0,0,.42,5C126.26,72.49,142,67,151.63,53.49c1.4-2,3.19-2,4.59,0,9.61,13.47,23.33,18.77,21.46,38.25l5.52-13.64Z" transform="translate(-8.43 -7.82)" style="fill:#fff"/></svg>