<svg id="a48dd8a5-af14-4447-8962-2c721884c07a" data-name="Livello 1" xmlns="http://www.w3.org/2000/svg" viewBox="0 0 106.91 106.91"><rect width="106.91" height="106.91" rx="25" style="fill:#fd7979"/><path d="M51.18,33.32q8.06-5.16,15.68-3c3.9,1.13,4,28.92,4,28.92C82.71,56.17,89.21,40,86.25,25.51c-8.24,5.78-9.52,6.88-11.81,1.17C68.6,12.17,76.31,2.05,63.58,11.24,58.53,14.88,48.1,33,44.26,23.82,34,34.43,32.48,42,40.74,50.86c.11-1-.47-2.49-.15-3.61A24.08,24.08,0,0,1,51.18,33.32Z" transform="translate(-2.84 -2.84)" style="fill:#f5be03"/><path d="M56.77,101.43s0,0,0-.05a.69.69,0,0,0-.44.72c-3,3.92-6.26,3.91-9.19,0a.68.68,0,0,0-.45-.71v0h0c-.38-3.88,2.68-5.95,4.59-8.62a.5.5,0,0,1,.91,0c1.9,2.68,5,4.75,4.58,8.63h0Z" transform="translate(-2.84 -2.84)" style="fill:#fff"/><path d="M76.64,48.88a17,17,0,0,0-1-13.09C73.52,31.85,69.48,29,63.88,27a1.24,1.24,0,0,0-.33,0,1,1,0,0,0-.41-.16c-5.92-.66-10.89.19-14.63,2.82A17.06,17.06,0,0,0,41.88,39c-.19.61-.35,1.24-.49,1.88a25.09,25.09,0,0,0-.65,6.7v.22h.06V49a2.92,2.92,0,0,0,.44,1.72c6.65,6.72,10.41-1.9,11.64-6.82a9.41,9.41,0,0,1,1.34-3.28,7.57,7.57,0,0,1,.64-.79l.36-.23a7.61,7.61,0,0,1,.88-.71.47.47,0,0,1,.09-.06,8.78,8.78,0,0,1,4.72-1.75,7.3,7.3,0,0,1,1.28.85,6,6,0,0,1,.74.69c.18.2.34.42.5.63a13.86,13.86,0,0,1,1,1.47,8.27,8.27,0,0,1,.48,1.05,8.89,8.89,0,0,1,.26.88c0,.1.09.21.14.31A8.59,8.59,0,0,1,65,46.68q-1.39,4.83-7.77,10.75c-.22.2-.42.4-.65.6a99.87,99.87,0,0,0-9.45,9.22,18.9,18.9,0,0,0-3.33,6.67,12.2,12.2,0,0,0-.28,7,11.26,11.26,0,0,0,2.56,4.21c.6.66,1.62.17,1.91-.86h0q1.4-4.78,11.89-14.07l2.34-2.08a75,75,0,0,0,10-10.38c.16-.22.31-.45.46-.67l.05,0a1.88,1.88,0,0,0,.12-.18,29.32,29.32,0,0,0,3.86-8A.07.07,0,0,1,76.64,48.88Z" transform="translate(-2.84 -2.84)" style="fill:#fff;stroke:#fff;stroke-miterlimit:10"/></svg>